{"title":"Rychly Prachy (PRAHA - 05.11.2012) - Eva","uid":7805810,"size":437735577,"categoryP":"porn","categoryS":"movies","magnet":"?xt=urn:btih:85d4406c1507b5b4d4740eba15c3d8ae3f0a0821&amp;dn=Rychly+Prachy+%28PRAHA+-+05.11.2012%29+-+Eva&amp;tr=udp%3A%2F%2Ftracker.openbittorrent.com%3A80&amp;tr=udp%3A%2F%2Fopen.demonii.com%3A1337&amp;tr=udp%3A%2F%2Ftracker.coppersurfer.tk%3A6969&amp;tr=udp%3A%2F%2Fexodus.desync.com%3A6969","seeders":0,"leechers":1,"uploader":null,"files":4,"time":1352394063,"description":"Rychly Prachy (PRAHA - 05.11.2012) - Eva\n\n  Without advertising!\n\nScreen:           &lt;a href=&quot;\nhttp://image.bayimg.com/0dbd50f2542310931488a3eb3585abd3da6db180.jpg&quot; rel=&quot;nofollow&quot; target=&quot;_NEW&quot;&gt;\nhttp://image.bayimg.com/0dbd50f2542310931488a3eb3585abd3da6db180.jpg&lt;/a&gt;\n\nOficial website:  &lt;a href=&quot;\nhttp://rychlyprachy.cz&quot; rel=&quot;nofollow&quot; target=&quot;_NEW&quot;&gt;\nhttp://rychlyprachy.cz&lt;/a&gt;\n\nDirect Link:      &lt;a href=&quot;\nhttp://rychlyprachy.cz/video61.cz.html&quot; rel=&quot;nofollow&quot; target=&quot;_NEW&quot;&gt;\nhttp://rychlyprachy.cz/video61.cz.html&lt;/a&gt;\n\n\n\nGeneral\nComplete name                            : Rychly Prachy (PRAHA - 05.11.2012) - Eva.wmv\nFormat                                   : Windows Media\nFile size                                : 417 MiB\nDuration                                 : 18mn 27s\nOverall bit rate mode                    : Constant\nOverall bit rate                         : 3 160 Kbps\nMaximum Overall bit rate                 : 3 173 Kbps\nEncoded date                             : UTC 2012-11-04 18:19:49.920\nSfOriginalFPS                            : 300000\n\nVideo\nID                                       : 2\nFormat                                   : VC-1\nFormat profile                           : MP@ML\nCodec ID                                 : WMV3\nCodec ID/Info                            : Windows Media Video 9\nCodec ID/Hint                            : WMV3\nDescription of the codec                 : Windows Media Video 9 - Professional\nDuration                                 : 18mn 27s\nBit rate mode                            : Constant\nBit rate                                 : 3 050 Kbps\nWidth                                    : 640 pixels\nHeight                                   : 480 pixels\nDisplay aspect ratio                     : 4:3\nFrame rate                               : 30.000 fps\nBit depth                                : 8 bits\nScan type                                : Progressive\nCompression mode                         : Lossy\nBits/(Pixel*Frame)                       : 0.331\nStream size                              : 403 MiB (96%)\nLanguage                                 : Czech\n\nAudio\nID                                       : 1\nFormat                                   : WMA\nFormat version                           : Version 2\nCodec ID                                 : 161\nCodec ID/Info                            : Windows Media Audio\nDescription of the codec                 : Windows Media Audio 9.2 -  96 kbps, 44 kHz, stereo (A/V) 1-pass CBR\nDuration                                 : 18mn 27s\nBit rate mode                            : Constant\nBit rate                                 : 96.0 Kbps\nChannel(s)                               : 2 channels\nSampling rate                            : 44.1 KHz\nBit depth                                : 16 bits\nStream size                              : 12.7 MiB (3%)\nLanguage                                 : Czech","torrent":{"xt":"urn:btih:85d4406c1507b5b4d4740eba15c3d8ae3f0a0821","amp;dn":"Rychly+Prachy+%28PRAHA+-+05.11.2012%29+-+Eva","amp;tr":["udp%3A%2F%2Ftracker.openbittorrent.com%3A80","udp%3A%2F%2Fopen.demonii.com%3A1337","udp%3A%2F%2Ftracker.coppersurfer.tk%3A6969","udp%3A%2F%2Fexodus.desync.com%3A6969"],"infoHash":"85d4406c1507b5b4d4740eba15c3d8ae3f0a0821","infoHashBuffer":{"type":"Buffer","data":[133,212,64,108,21,7,181,180,212,116,14,186,21,195,216,174,63,10,8,33]},"announce":[],"urlList":[]}}